<svg t="1616595399037" class="icon" viewBox="0 0 1024 1024" version="1.1" xmlns="http://www.w3.org/2000/svg" p-id="2079" width="200" height="200"><path d="M320 128C190.272 128 83.52 225.728 67.52 350.976 65.28 361.216 64 372.032 64 384c0 146.24 111.744 278.272 218.496 376.256a1512.704 1512.704 0 0 0 212.992 163.008l16.512 10.24 16.512-10.24s106.496-64.768 213.248-163.008C848.256 662.272 960 530.24 960 384c0-12.032-1.28-22.528-3.2-32.512C940.416 225.728 833.92 128 704 128c-79.488 0-145.28 41.472-192 98.56C465.28 169.408 399.488 128 320 128z m0 64c70.528 0 131.008 38.016 164.48 94.528l27.52 46.464 27.52-46.464A190.528 190.528 0 0 1 704 192a190.72 190.72 0 0 1 189.44 168.512l0.576 2.496c1.28 6.016 1.984 12.8 1.984 20.992 0 112-96.256 236.032-197.76 329.28-92.992 85.76-171.52 133.44-186.24 142.72-14.72-9.28-93.248-56.96-186.496-142.72C224.256 620.032 128 496 128 384c0-8.512 0.768-15.232 1.984-20.992l0.512-1.536v-1.472A190.912 190.912 0 0 1 320 192z" fill="#8a8a8a" p-id="2080"></path></svg>