<svg t="1616684695980" class="icon" viewBox="0 0 1024 1024" version="1.1" xmlns="http://www.w3.org/2000/svg" p-id="2858" width="200" height="200"><path d="M704 128A271.36 271.36 0 0 0 512 216.32 271.36 271.36 0 0 0 320 128 234.666667 234.666667 0 0 0 85.333333 362.666667c0 167.253333 202.666667 352 298.666667 448l97.28 97.28a32 32 0 0 0 22.613333 9.386666h16.213334a32 32 0 0 0 22.613333-9.386666L640 810.666667c96-96 298.666667-280.746667 298.666667-448A234.666667 234.666667 0 0 0 704 128z m-98.133333 597.333333L512 817.92 418.133333 725.333333C331.52 640 170.666667 480.426667 170.666667 362.666667A149.333333 149.333333 0 0 1 320 213.333333a213.333333 213.333333 0 0 1 158.293333 94.293334 32.853333 32.853333 0 0 0 25.6 12.373333h19.2a21.76 21.76 0 0 0 17.066667-8.533333A218.026667 218.026667 0 0 1 702.72 213.333333 149.333333 149.333333 0 0 1 853.333333 362.666667c0 117.76-160.853333 277.333333-247.466666 362.666666z" p-id="2859" fill="#8a8a8a"></path></svg>